<svg width="67" height="60" viewBox="0 0 67 60" fill="none" xmlns="http://www.w3.org/2000/svg">
<rect width="5" height="60" fill="white"/>
<rect x="8" width="5" height="45" fill="white"/>
<rect x="30" width="5" height="45" fill="white"/>
<rect x="54" width="5" height="45" fill="white"/>
<rect x="16" width="3" height="45" fill="white"/>
<rect x="22" width="3" height="45" fill="white"/>
<rect x="40" width="3" height="45" fill="white"/>
<rect x="46" width="3" height="45" fill="white"/>
<rect x="62" width="5" height="60" fill="white"/>
<path d="M9.87891 48.4102H13.3125C13.9922 48.4102 14.498 48.4395 14.8301 48.498C15.166 48.5527 15.4648 48.6699 15.7266 48.8496C15.9922 49.0293 16.2129 49.2695 16.3887 49.5703C16.5645 49.8672 16.6523 50.2012 16.6523 50.5723C16.6523 50.9746 16.543 51.3438 16.3242 51.6797C16.1094 52.0156 15.8164 52.2676 15.4453 52.4355C15.9688 52.5879 16.3711 52.8477 16.6523 53.2148C16.9336 53.582 17.0742 54.0137 17.0742 54.5098C17.0742 54.9004 16.9824 55.2812 16.7988 55.6523C16.6191 56.0195 16.3711 56.3145 16.0547 56.5371C15.7422 56.7559 15.3555 56.8906 14.8945 56.9414C14.6055 56.9727 13.9082 56.9922 12.8027 57H9.87891V48.4102ZM11.6133 49.8398V51.8262H12.75C13.4258 51.8262 13.8457 51.8164 14.0098 51.7969C14.3066 51.7617 14.5391 51.6602 14.707 51.4922C14.8789 51.3203 14.9648 51.0957 14.9648 50.8184C14.9648 50.5527 14.8906 50.3379 14.7422 50.1738C14.5977 50.0059 14.3809 49.9043 14.0918 49.8691C13.9199 49.8496 13.4258 49.8398 12.6094 49.8398H11.6133ZM11.6133 53.2559V55.5527H13.2188C13.8438 55.5527 14.2402 55.5352 14.4082 55.5C14.666 55.4531 14.875 55.3398 15.0352 55.1602C15.1992 54.9766 15.2812 54.7324 15.2812 54.4277C15.2812 54.1699 15.2188 53.9512 15.0938 53.7715C14.9688 53.5918 14.7871 53.4609 14.5488 53.3789C14.3145 53.2969 13.8027 53.2559 13.0137 53.2559H11.6133ZM18.1934 52.7578C18.1934 51.8828 18.3242 51.1484 18.5859 50.5547C18.7812 50.1172 19.0469 49.7246 19.3828 49.377C19.7227 49.0293 20.0938 48.7715 20.4961 48.6035C21.0312 48.377 21.6484 48.2637 22.3477 48.2637C23.6133 48.2637 24.625 48.6562 25.3828 49.4414C26.1445 50.2266 26.5254 51.3184 26.5254 52.7168C26.5254 54.1035 26.1484 55.1895 25.3945 55.9746C24.6406 56.7559 23.6328 57.1465 22.3711 57.1465C21.0938 57.1465 20.0781 56.7578 19.3242 55.9805C18.5703 55.1992 18.1934 54.125 18.1934 52.7578ZM19.9805 52.6992C19.9805 53.6719 20.2051 54.4102 20.6543 54.9141C21.1035 55.4141 21.6738 55.6641 22.3652 55.6641C23.0566 55.6641 23.623 55.416 24.0645 54.9199C24.5098 54.4199 24.7324 53.6719 24.7324 52.6758C24.7324 51.6914 24.5156 50.957 24.082 50.4727C23.6523 49.9883 23.0801 49.7461 22.3652 49.7461C21.6504 49.7461 21.0742 49.9922 20.6367 50.4844C20.1992 50.9727 19.9805 51.7109 19.9805 52.6992ZM27.9316 57V48.4805H29.666V55.5527H33.9785V57H27.9316ZM35.2207 57V48.4102H41.5898V49.8633H36.9551V51.7676H41.2676V53.2148H36.9551V55.5527H41.7539V57H35.2207ZM45.1582 57V49.8633H42.6094V48.4102H49.4355V49.8633H46.8926V57H45.1582ZM49.9863 52.7578C49.9863 51.8828 50.1172 51.1484 50.3789 50.5547C50.5742 50.1172 50.8398 49.7246 51.1758 49.377C51.5156 49.0293 51.8867 48.7715 52.2891 48.6035C52.8242 48.377 53.4414 48.2637 54.1406 48.2637C55.4062 48.2637 56.418 48.6562 57.1758 49.4414C57.9375 50.2266 58.3184 51.3184 58.3184 52.7168C58.3184 54.1035 57.9414 55.1895 57.1875 55.9746C56.4336 56.7559 55.4258 57.1465 54.1641 57.1465C52.8867 57.1465 51.8711 56.7578 51.1172 55.9805C50.3633 55.1992 49.9863 54.125 49.9863 52.7578ZM51.7734 52.6992C51.7734 53.6719 51.998 54.4102 52.4473 54.9141C52.8965 55.4141 53.4668 55.6641 54.1582 55.6641C54.8496 55.6641 55.416 55.416 55.8574 54.9199C56.3027 54.4199 56.5254 53.6719 56.5254 52.6758C56.5254 51.6914 56.3086 50.957 55.875 50.4727C55.4453 49.9883 54.873 49.7461 54.1582 49.7461C53.4434 49.7461 52.8672 49.9922 52.4297 50.4844C51.9922 50.9727 51.7734 51.7109 51.7734 52.6992Z" fill="white"/>
</svg>
