<svg width="60" height="60" viewBox="0 0 60 60" fill="none" xmlns="http://www.w3.org/2000/svg">
<path d="M48.75 6.38253C48.75 4.68977 49.3426 3.06635 50.3975 1.8694C51.4524 0.672443 52.8832 0 54.375 0C55.8668 0 57.2976 0.672443 58.3525 1.8694C59.4074 3.06635 60 4.68977 60 6.38253V53.1877C60 54.8805 59.4074 56.5039 58.3525 57.7008C57.2976 58.8978 55.8668 59.5702 54.375 59.5702C52.8832 59.5702 51.4524 58.8978 50.3975 57.7008C49.3426 56.5039 48.75 54.8805 48.75 53.1877V6.38253ZM45 9.46316C37.2487 13.5054 27.9788 15.7648 18.75 16.5095V43.048C20.1121 43.1352 21.4725 43.2558 22.83 43.4097C30.5287 44.2777 37.9725 46.252 45 50.0475V9.46316ZM15 42.8267V16.7392C12.45 16.8541 9.75375 16.9222 7.47 16.9648C5.48377 16.996 3.58784 17.9112 2.19061 19.5133C0.793387 21.1154 0.00669294 23.2762 0 25.5301L0 34.0401C0 38.7462 3.36 42.5332 7.4775 42.5885C8.09753 42.5973 8.71754 42.6086 9.3375 42.6225C11.2256 42.6653 13.1133 42.7334 15 42.8267ZM20.2125 47.4264C21.2812 47.5158 22.3462 47.6264 23.4 47.7583L24.3488 54.9493C24.452 55.5647 24.4342 56.1983 24.2967 56.805C24.1591 57.4117 23.9052 57.9764 23.5531 58.4589C23.201 58.9414 22.7593 59.3297 22.2596 59.5961C21.7599 59.8625 21.2146 60.0004 20.6625 60H18.6075C17.8786 59.9999 17.1655 59.7588 16.5554 59.3062C15.9454 58.8535 15.4648 58.2089 15.1725 57.4512L10.245 46.8988C12.3609 46.9587 14.4761 47.0495 16.59 47.1711C17.8162 47.2435 19.0275 47.3286 20.2125 47.4264Z" fill="white"/>
</svg>
